<svg id="Icons" height="512" viewBox="0 0 60 60" width="512" xmlns="http://www.w3.org/2000/svg"><path d="m31.54 59.47a.5.5 0 0 1 -.278-.916l5.392-3.606-7.716 4.452a.5.5 0 0 1 -.532-.845l9.7-6.641-12.669 7.318a.5.5 0 0 1 -.527-.849l10.374-6.87-10.984 6.341a.5.5 0 0 1 -.516-.854l2.555-1.6-2.153 1.243a.5.5 0 0 1 -.517-.855l7-4.4-6.723 3.88a.5.5 0 0 1 -.515-.856l7.935-4.98-7.947 4.587a.5.5 0 0 1 -.515-.856l8.215-5.137-15.927 9.196a.5.5 0 0 1 -.512-.859l12.807-7.915-15.214 8.783a.5.5 0 0 1 -.511-.858l13.071-8.026-13.851 8a.5.5 0 0 1 -.508-.861l2.032-1.226-2.046 1.177a.5.5 0 0 1 -.511-.86l13.309-8.143-12.978 7.492a.5.5 0 0 1 -.509-.86l10.389-6.327-9.879 5.7a.5.5 0 0 1 -.513-.857l20.555-12.768-20.23 11.68a.5.5 0 0 1 -.509-.86l2.488-1.5-2.724 1.571a.5.5 0 0 1 -.514-.857l21.26-13.216-21.551 12.441a.5.5 0 0 1 -.508-.86l2.883-1.739-2.181 1.258a.5.5 0 0 1 -.508-.86l4.076-2.463-4.479 2.591a.5.5 0 0 1 -.51-.859l10.649-6.48-10.165 5.866a.5.5 0 0 1 -.515-.856l22.287-13.9-21.3 12.3a.5.5 0 0 1 -.511-.859l12.217-7.471-13.142 7.577a.5.5 0 0 1 -.511-.859l12.516-7.647-14.2 8.2a.5.5 0 0 1 -.51-.86l11.638-7.087-12.189 7.035a.5.5 0 0 1 -.513-.859l18.413-11.341-18.09 10.444a.5.5 0 0 1 -.512-.859l16.532-10.162-13.91 8.03a.5.5 0 0 1 -.514-.858l18.32-11.4-15.736 9.089a.5.5 0 0 1 -.517-.856l19.447-12.294-17.688 10.211a.5.5 0 0 1 -.512-.858l9.242-5.705-8.376 4.835a.5.5 0 0 1 -.518-.855l15.781-10.011-15.146 8.749a.5.5 0 0 1 -.513-.858l8.152-5.063-7.583 4.374a.5.5 0 0 1 -.517-.853l11.278-7.116-10.574 6.1a.5.5 0 0 1 -.526-.85l12.717-8.169-11.778 6.8a.5.5 0 0 1 -.519-.854l9.859-6.325-8.728 5.039a.5.5 0 0 1 -.516-.856l2.864-1.8-1.715.99a.5.5 0 0 1 -.521-.853l5.29-3.406-3.783 2.181a.5.5 0 0 1 -.528-.848l5.959-4-3.729 2.153a.5.5 0 0 1 -.558-.828l4.822-3.758a.5.5 0 0 1 -.489-.248.5.5 0 0 1 .183-.682l5.824-3.362a.5.5 0 0 1 .558.827l-4.581 3.571 10.289-5.939a.5.5 0 0 1 .528.847l-5.964 4 8.688-5.014a.5.5 0 0 1 .52.852l-5.267 3.4 7.092-4.096a.5.5 0 0 1 .515.855l-2.888 1.817 4.144-2.393a.5.5 0 0 1 .52.854l-9.856 6.322 11.517-6.648a.5.5 0 0 1 .52.853l-12.718 8.17 14.35-8.286a.5.5 0 0 1 .517.855l-11.275 7.116 12.476-7.2a.5.5 0 0 1 .514.858l-8.153 5.059 9-5.195a.5.5 0 0 1 .518.854l-15.776 10.009 16.951-9.786a.5.5 0 0 1 .512.859l-9.237 5.7 9.883-5.7a.5.5 0 0 1 .517.855l-19.447 12.3 20.479-11.831a.5.5 0 0 1 .513.857l-18.313 11.395 19.05-11a.5.5 0 0 1 .511.858l-16.538 10.166 17.052-9.844a.5.5 0 0 1 .513.859l-18.412 11.341 18.878-10.9a.5.5 0 0 1 .509.86l-11.634 7.085 11.854-6.843a.5.5 0 0 1 .511.859l-12.531 7.654 12.71-7.338a.5.5 0 0 1 .511.86l-12.228 7.478 12.344-7.121a.5.5 0 0 1 .514.857l-22.273 13.9 22.517-13a.5.5 0 0 1 .51.86l-10.65 6.472 10.568-6.1a.5.5 0 0 1 .509.86l-4.084 2.467 3.889-2.246a.5.5 0 0 1 .508.86l-2.9 1.749 2.651-1.53a.5.5 0 0 1 .514.857l-21.257 13.215 21.084-12.17a.5.5 0 0 1 .508.86l-2.5 1.507 2.119-1.222a.5.5 0 0 1 .514.857l-20.541 12.761 20.111-11.612a.5.5 0 0 1 .51.86l-10.421 6.349 9.877-5.7a.5.5 0 0 1 .511.86l-13.311 8.139 12.644-7.3a.5.5 0 0 1 .509.861l-2.052 1.239 1.334-.77a.5.5 0 0 1 .512.858l-13.06 8.023 12.115-7a.5.5 0 0 1 .513.859l-12.8 7.911 11.622-6.71a.5.5 0 0 1 .515.856l-8.229 5.15 6.831-3.944a.5.5 0 0 1 .516.857l-7.928 4.975 6.127-3.537a.5.5 0 0 1 .517.856l-6.987 4.394 4.559-2.631a.5.5 0 0 1 .515.856l-2.693 1.678a.5.5 0 0 1 .461.882l-10.374 6.87 9.867-5.7a.5.5 0 0 1 .532.846l-9.706 6.643 9.563-5.52a.5.5 0 0 1 .528.849l-5.39 3.6 5.162-2.973a.5.5 0 0 1 .525.849l-2.046 1.351 1.758-1.015a.5.5 0 0 1 .526.85l-.55.364.239-.137a.5.5 0 0 1 .552.831l-4.554 3.44 4.35-2.511a.5.5 0 0 1 .543.838l-1.134.82.827-.477a.5.5 0 0 1 .549.834l-.32.237a.5.5 0 0 1 .619.762l-1.773 2.117 1.535-.886a.5.5 0 0 1 .635.751l-.46.557a.5.5 0 0 1 .077.9l-1.655.956a.5.5 0 0 1 -.635-.751l.13-.158-1.58.912a.5.5 0 0 1 -.633-.754l1.775-2.116-4.974 2.869a.5.5 0 0 1 -.549-.834l.317-.235-1.853 1.069a.5.5 0 0 1 -.543-.838l1.135-.819-2.872 1.657a.5.5 0 0 1 -.552-.831l4.554-3.443-7.405 4.274a.5.5 0 0 1 -.526-.849l.552-.365-2.1 1.214a.5.5 0 0 1 -.525-.849l2.035-1.344-3.804 2.193a.5.5 0 0 1 -.25.07z" fill="#fdd1c3"/><g fill="#3d6177"><path d="m36.914 37.644a.5.5 0 0 1 -.25-.933l8.787-5.073a.5.5 0 0 1 .651.732l-1.487 1.985.621-.355a.5.5 0 1 1 .5.865l-2.736 1.574a.5.5 0 0 1 -.624-.1.5.5 0 0 1 -.026-.632l1.486-1.984-6.676 3.853a.5.5 0 0 1 -.246.068z"/><path d="m40.414 30.287a.5.5 0 0 1 -.314-.887l4.713-3.852-2.062 1.189a.5.5 0 0 1 -.57-.816l2.229-1.864-1.191.687a.5.5 0 0 1 -.581-.807l.98-.866-.313.181a.5.5 0 0 1 -.607-.784l1.4-1.415-.955.551a.5.5 0 0 1 -.614-.776l1.3-1.376-1.09.629a.5.5 0 0 1 -.627-.761l1.358-1.563-1.412.814a.5.5 0 0 1 -.6-.787l.984-.979-1.1.636a.5.5 0 0 1 -.593-.8l1.851-1.741-2.326 1.341a.5.5 0 0 1 -.565-.82l.5-.4-.806.465a.5.5 0 0 1 -.572-.816l.947-.795-1.491.862a.5.5 0 0 1 -.593-.8l1.306-1.237-2.261 1.3a.5.5 0 0 1 -.631-.757l1.241-1.454-2.88 1.662a.5.5 0 0 1 -.629-.759l1.478-1.72-4.837 2.792a.5.5 0 0 1 -.5-.866l7.381-4.26a.5.5 0 0 1 .629.758l-1.478 1.724 2.848-1.644a.5.5 0 0 1 .631.756l-1.239 1.455 3.474-2.006a.5.5 0 0 1 .592.8l-1.309 1.228 2.728-1.575a.5.5 0 0 1 .572.815l-.949.8 1.263-.728a.5.5 0 0 1 .565.82l-.5.4.639-.368a.5.5 0 0 1 .593.8l-1.862 1.75.684-.395a.5.5 0 0 1 .6.788l-.983.978.679-.392a.5.5 0 0 1 .628.761l-1.36 1.566 1.462-.844a.5.5 0 0 1 .614.775l-1.3 1.376 1.2-.7a.5.5 0 0 1 .606.784l-1.4 1.416 1.433-.827a.5.5 0 0 1 .582.808l-.98.864 1.868-1.078a.5.5 0 0 1 .571.816l-2.213 1.865 2.4-1.387a.5.5 0 0 1 .567.819l-4.713 3.853 4.126-2.379a.5.5 0 0 1 .5.865l-9.466 5.465a.491.491 0 0 1 -.25.067z"/><path d="m30.759 7.279a.5.5 0 0 1 -.25-.932l1.176-.679a.5.5 0 0 1 .5.865l-1.176.679a.494.494 0 0 1 -.25.067z"/><path d="m34.065 40.4a.5.5 0 0 1 -.3-.9l4.335-3.216-6.71 3.875a.5.5 0 0 1 -.529-.848l2.295-1.536-2.356 1.366a.5.5 0 0 1 -.539-.841l7.691-5.438-8.3 4.79a.5.5 0 0 1 -.632-.754l1.67-1.992-3.364 1.943a.5.5 0 0 1 -.62-.77l1.2-1.313-2.186 1.258a.5.5 0 0 1 -.654-.727l1.344-1.84-4.461 2.574a.5.5 0 0 1 -.649-.131.5.5 0 0 1 .065-.665l1.761-1.618-2.288 1.321a.5.5 0 0 1 -.582-.807l1.44-1.275-1.6.922a.5.5 0 0 1 -.6-.793l1.886-1.809-.431.248a.5.5 0 0 1 -.634-.753l1.356-1.623-1.566.9a.5.5 0 0 1 -.606-.783l.933-.946-.866.5a.5.5 0 0 1 -.616-.773l1.448-1.564-1.347.777a.5.5 0 0 1 -.605-.785l1.517-1.528-2.051 1.183a.5.5 0 0 1 -.57-.816l1.021-.853-1.765 1.021a.5.5 0 0 1 -.576-.813l3.662-3.136-3.373 1.946a.5.5 0 0 1 -.542-.838l2.045-1.477-1.416.817a.5.5 0 0 1 -.519-.854l3.09-1.975a.5.5 0 0 1 -.238-.9l7.379-5.211-5.606 3.236a.5.5 0 0 1 -.525-.851l.6-.392a.512.512 0 0 1 -.461-.191.5.5 0 0 1 .04-.657l1.3-1.312-1.275.735a.5.5 0 0 1 -.618-.772l1.407-1.525a.5.5 0 0 1 .044-.837l1.623-.936a.5.5 0 0 1 .617.771l-.73.792 1.648-.951a.5.5 0 0 1 .605.784l-1.3 1.313 11.019-6.366a.5.5 0 0 1 .525.851l-.075.049.15-.081a.5.5 0 0 1 .538.841l-7.378 5.202 7.633-4.407a.5.5 0 0 1 .519.854l-9.933 6.349.007.011a.5.5 0 0 1 -.127.677l-2.327 1.681a.5.5 0 0 1 .4.874l-3.662 3.137 2.122-1.219a.5.5 0 0 1 .57.816l-1.019.851.266-.154a.5.5 0 0 1 .6.786l-1.509 1.525.985-.569a.5.5 0 0 1 .616.773l-1.45 1.561 1.187-.684a.5.5 0 0 1 .606.783l-.931.945.807-.465a.5.5 0 0 1 .634.753l-1.356 1.623 1.56-.9a.5.5 0 0 1 .6.793l-1.885 1.809 2.314-1.336a.5.5 0 0 1 .583.806l-1.45 1.277 1.93-1.114a.5.5 0 0 1 .588.8l-1.762 1.621 2.583-1.491a.5.5 0 0 1 .653.728l-1.342 1.84 2.916-1.684a.5.5 0 0 1 .639.119.5.5 0 0 1 -.019.651l-1.2 1.313 3.036-1.752a.5.5 0 0 1 .632.754l-1.671 1.992 15.266-8.813a.5.5 0 0 1 .539.84l-7.692 5.439 6.029-3.481a.5.5 0 0 1 .528.849l-2.288 1.53 1.207-.7a.5.5 0 0 1 .548.834l-10 7.412a.494.494 0 0 1 -.246.37l-1.176.679a.491.491 0 0 1 -.253.071z"/></g><path d="m34.635 33.336a.5.5 0 0 1 -.325-.88l3.743-3.208-6.826 3.94a.5.5 0 0 1 -.546-.835l4.647-3.417-6.19 3.574a.5.5 0 0 1 -.543-.838l6.039-4.359-7.244 4.187a.5.5 0 0 1 -.534-.845l5.152-3.555-5.823 3.362a.5.5 0 0 1 -.535-.844l6.119-4.237-6.636 3.831a.5.5 0 0 1 -.522-.853l.165-.106-.185.106a.5.5 0 0 1 -.535-.843l6.426-4.46-6.588 3.8a.5.5 0 0 1 -.532-.845l4.884-3.328-4.757 2.746a.5.5 0 0 1 -.543-.838l6.822-4.933-6.487 3.744a.5.5 0 0 1 -.542-.839l4.988-3.585-4.237 2.451a.5.5 0 0 1 -.54-.84l2.468-1.756-1.384.8a.5.5 0 0 1 -.587-.8l2.92-2.66a.506.506 0 0 1 -.562-.233.5.5 0 0 1 .182-.683l3.828-2.21a.5.5 0 0 1 .587.8l-2.86 2.606 6.516-3.762a.5.5 0 0 1 .54.84l-2.471 1.758 3.773-2.182a.5.5 0 0 1 .542.839l-4.988 3.586 6.249-3.607a.5.5 0 0 1 .543.838l-6.817 4.937 7.934-4.581a.5.5 0 0 1 .532.846l-4.88 3.325 5.385-3.111a.5.5 0 0 1 .536.843l-6.428 4.461 6.844-3.951a.5.5 0 0 1 .521.853l-.164.106.108-.062a.5.5 0 0 1 .535.843l-6.117 4.236 6.138-3.543a.5.5 0 0 1 .533.845l-5.148 3.546 4.9-2.831a.5.5 0 0 1 .543.838l-6.039 4.359 5.5-3.178a.5.5 0 0 1 .546.835l-4.645 3.421 3.657-2.11a.5.5 0 0 1 .575.812l-3.742 3.207 1.38-.8a.5.5 0 0 1 .5.865l-6.048 3.493a.5.5 0 0 1 -.25.069z" fill="#305266"/><path d="m51.2 41.549c28.38-38.833-42.468-61.96-43.262-13.241-.655 4.88-11.679 13.076-.695 13.228.106 1.931-1.849 4.127.7 5.24-.865 1.111-.687 2.593.708 3.03 1.1 1.066.456 2.859.609 4.24 1.018 6.83 9.7 1.9 13.427.333.525 5.527 2.381 5.445 7.387 5.185 4.1-.962 23.383 2.74 22.165-3.149.242-4.535-4.52-11.43-1.039-14.866zm-2.893 2.8c-.278 2.96 4.438 13.3 1.253 14.092a26.473 26.473 0 0 1 -2.914 0c-7.05-.248-14.343.474-21.277-.241-1.238-1.159-.444-3.252-1.406-4.638 4.267-1.154 7.869-3.06 8.977-7.67.122-.271-.488-.227-.6-.21-3.931 4.34-.9 5.134-8.741 7.384-2.651.214-12.543 6.888-12.864.893 0-1.24.334-3.128-.28-4.25a2.5 2.5 0 0 0 -1.05-.967c-1.476-.771.949-1.992-.073-2.69-2.441-.87-.249-3.28-.6-5.092-.47-1.1-2.442-.281-3.435-.742-2.186-.354-1.673-2.731-.359-3.841 7.414-7.683 2.793-19.96 10.875-27.393 13.887-15.86 41.917-3.929 40.433 16.972a23.257 23.257 0 0 1 -6.273 15.116c-.939 1.004-1.893 1.773-1.667 3.272z" fill="#262626"/><path d="m36.756 13.087c-17.128-5.207-19.833 22.718-1.841 20.245 10.352-1.557 11.917-16.968 1.841-20.245zm-.521 18.838c-14.852 4.561-17.093-20.415-1.57-18.22 9.002 1.574 10.258 15.195 1.57 18.22z" fill="#262626"/><path d="m49.365 20.193c-.691-.274-1.378-.309-1.421-1.246-.09-1.612-1.691-3.062-1.711-4.524 2.083-2.906-2.166-6.441-4.91-4.259-1.247-.987-3.3-1.319-4.618-1.9-.764-.817-.321-2.179-1.664-2.523-2.265-.634-5.388-.163-5.7 2.677a16.764 16.764 0 0 0 -4.219 1.728c-2.2-1.627-4.534-.051-5.788 1.921-.692 1.167.347 1.714.5 2.823-.411 1.584-1.721 3.223-1.919 4.983-2.207.427-3.083 2.131-2.608 4.292.078 1.555 1.476 1.541 2.541 2.159a31.251 31.251 0 0 0 2.052 4.948c-2.136 3.027 1.77 6.664 4.773 4.559 1.249.99 3.3 1.323 4.626 1.9.764.817.321 2.179 1.664 2.523 2.265.634 5.388.164 5.7-2.677a16.764 16.764 0 0 0 4.219-1.728c2.2 1.627 4.534.051 5.788-1.921.691-1.168-.347-1.714-.5-2.823.411-1.584 1.721-3.223 1.919-4.983 2.841-.18 3.937-4.833 1.276-5.929zm-.157 4.369c-.271 1.029-1.72.7-2.359 1.386-.553 1.022-.6 2.352-1.222 3.388-.4.849-1.182 1.435-.838 2.329a2.347 2.347 0 0 1 -.8 3.7c-.522.471-.526.431-1.106.184-1.673-1.309-3.135.2-4.7.888-.9.438-2.021.416-2.826.993-.611.694-.347 2.348-1.657 2.2-2.715.393-2.059-1.168-3.279-2.567-1.414-.555-3.15-.832-4.442-1.776-2.528-1.13-2.343 2.322-5.029-1.3-.9-1.055.13-2 .433-3.045-.414-1.125-1.353-2.232-1.637-3.466-.3-3.8-4.079-.621-2.958-6.039.206-.741 1.164-.836 1.8-1.119 1.456-1.169 1.451-3.954 2.791-5.471-.8-2.012-1.353-3.048.928-4.493 1.143-.181 2.249 1.266 3.427.256 1.487-1.3 4.194-.978 5.158-2.659.164-1.916 2.525-2.023 3.66-1.035.548 2.505 2.103 2.084 4.092 3.058 1.687 1.409 2.761 1.064 4.517.147 4.646 3.487-.189 3.525 2.634 7.224.711 5.355 4.341 1.561 3.413 7.217z" fill="#262626"/><path d="m33.679 17.741c-1.875-.246-2.937 2.31-4.341 3.29.634 1.164 2.261-1.112 2.938-1.676-.738 11.376 2.029 12.555 1.448.308.676.772 2.347 2.61 2.956 1.078z" fill="#262626"/></svg>