<svg id="icons" height="512" viewBox="0 0 60 60" width="512" xmlns="http://www.w3.org/2000/svg"><path d="m28.694 31.492a.5.5 0 0 1 -.368-.839l2.092-2.278-3.138 1.813a.5.5 0 0 1 -.584-.8l2.414-2.172-1.83 1.057a.5.5 0 0 1 -.58-.809l2.163-1.9-1.583.914a.5.5 0 0 1 -.578-.81l2.025-1.768-1.447.835a.5.5 0 0 1 -.585-.8l2.453-2.218-1.868 1.083a.5.5 0 0 1 -.571-.816l1.548-1.3-.977.564a.5.5 0 0 1 -.563-.823l.879-.707-.316.183a.5.5 0 0 1 -.557-.828l.4-.314a.5.5 0 0 1 -.439-.854l2.464-2.321-1.868 1.079a.5.5 0 0 1 -.608-.782l.616-.635h-.008a.5.5 0 0 1 -.731-.568l.258-.917a.486.486 0 0 1 -.209-.2.5.5 0 0 1 .182-.683l.5-.291a.5.5 0 0 1 .732.569l-.171.607 2.059-1.182a.5.5 0 0 1 .609.781l-.615.638 2.477-1.43a.5.5 0 0 1 .593.8l-2.464 2.316 2.223-1.286a.5.5 0 0 1 .557.828l-.4.313a.5.5 0 0 1 .41.88l-.878.706.318-.183a.5.5 0 0 1 .571.816l-1.549 1.3.979-.566a.5.5 0 0 1 .585.8l-2.456 2.223 1.873-1.081a.5.5 0 0 1 .579.81l-2.024 1.754 1.448-.836a.5.5 0 0 1 .58.809l-2.163 1.9 1.586-.916a.5.5 0 0 1 .584.8l-2.413 2.18 1.832-1.058a.5.5 0 0 1 .618.771l-2.091 2.278 1.477-.853a.5.5 0 0 1 .74.532l-.325 1.6a.5.5 0 0 1 .089.906l-.5.291a.5.5 0 0 1 -.74-.532l.279-1.377-3.341 1.929a.5.5 0 0 1 -.254.068z" fill="#bfdbf0"/><path d="m30.537 42.4a.5.5 0 0 1 -.333-.874l2.436-2.173-4.729 2.73a.5.5 0 0 1 -.551-.832l2.29-1.726-3.909 2.256a.5.5 0 0 1 -.55-.833l3.86-2.886-5.767 3.329a.5.5 0 0 1 -.532-.846l1.675-1.145-1.027.592a.5.5 0 0 1 -.532-.845l.96-.656-.318.184a.5.5 0 0 1 -.545-.837l3.153-2.3-2.465 1.423a.5.5 0 0 1 -.573-.813l4.266-3.62-3.333 1.924a.5.5 0 0 1 -.609-.781l2.178-2.24a.49.49 0 0 1 -.511-.244.5.5 0 0 1 .183-.683l2.861-1.652a.5.5 0 0 1 .609.782l-2.092 2.151 5.014-2.894a.5.5 0 0 1 .573.814l-4.266 3.619 5.747-3.324a.5.5 0 0 1 .545.837l-3.156 2.3 3.704-2.137a.5.5 0 0 1 .532.846l-.956.652.979-.564a.5.5 0 0 1 .532.845l-1.675 1.144 1.639-.946a.5.5 0 0 1 .55.833l-3.861 2.89 3.688-2.129a.5.5 0 0 1 .55.832l-2.285 1.723 1.865-1.076a.5.5 0 0 1 .583.8l-2.434 2.18 2.013-1.162a.5.5 0 0 1 .607.782l-.525.538.032-.019a.5.5 0 1 1 .5.865l-3.191 1.843a.5.5 0 0 1 -.608-.782l.526-.537-3.065 1.769a.49.49 0 0 1 -.252.073z" fill="#9ebbce"/><path d="m6.97 59.471a.5.5 0 0 1 -.37-.831l1.969-2.24-4.469 2.581a.5.5 0 0 1 -.577-.811l2.412-2.079-2.61 1.509a.5.5 0 0 1 -.625-.764l1.64-1.857-1.06.612a.5.5 0 0 1 -.736-.548l.3-1.262a.5.5 0 0 1 -.062-.9l.5-.29a.508.508 0 0 1 .549.032.5.5 0 0 1 .188.517l-.237 1 2.708-1.557a.5.5 0 0 1 .625.764l-1.64 1.853 4.563-2.634a.5.5 0 0 1 .576.812l-2.414 2.084 2.52-1.454a.5.5 0 0 1 .625.763l-1.973 2.235 1.349-.778a.5.5 0 0 1 .633.752l-.485.583a.49.49 0 0 1 .235.209.5.5 0 0 1 -.182.683l-1.614.932a.5.5 0 0 1 -.634-.753l.112-.135-1.566.9a.49.49 0 0 1 -.25.072z" fill="#9ebbce"/><path d="m53.244 59.471a.5.5 0 0 1 -.354-.853l1.089-1.1-3.092 1.785a.5.5 0 0 1 -.582-.807l2.628-2.328-3.454 1.994a.5.5 0 0 1 -.579-.81l1.53-1.333-1.15.664a.5.5 0 0 1 -.636-.749l.911-1.115-.275.158a.5.5 0 0 1 -.724-.589l.214-.645a.49.49 0 0 1 -.173-.177.5.5 0 0 1 .183-.683l.5-.29a.505.505 0 0 1 .566.046.5.5 0 0 1 .159.545l-.09.271 1.507-.87a.5.5 0 0 1 .637.749l-.913 1.115 3.254-1.873a.5.5 0 0 1 .579.81l-1.53 1.333 3.274-1.89a.5.5 0 0 1 .582.807l-2.63 2.33 2.049-1.183a.5.5 0 0 1 .6.785l-1.088 1.1.484-.278a.5.5 0 0 1 .5.865l-3.726 2.145a.49.49 0 0 1 -.25.071z" fill="#9ebbce"/><path d="m5.482 42.5a.5.5 0 0 1 -.323-.882l1.612-1.364-1.492.861a.5.5 0 0 1 -.655-.725l1.226-1.69a.5.5 0 0 1 -.6-.22.5.5 0 0 1 .183-.683l1.934-1.116a.5.5 0 0 1 .656.725l-1.216 1.672 4.3-2.481a.5.5 0 0 1 .574.814l-1.612 1.363 3.082-1.779a.5.5 0 0 1 .619.772l-1.982 2.152 2.678-1.545a.5.5 0 0 1 .632.756l-.832.983.461-.265a.5.5 0 0 1 .724.59l-.247.741a.491.491 0 0 1 .226.2.5.5 0 0 1 -.183.682l-.585.338a.5.5 0 0 1 -.724-.591l.147-.441-1.8 1.039a.5.5 0 0 1 -.632-.756l.831-.982-3.03 1.752a.5.5 0 0 1 -.618-.772l1.98-2.152-5.084 2.936a.489.489 0 0 1 -.25.068z" fill="#3778c6"/><path d="m45.718 42.5a.5.5 0 0 1 -.365-.842l2.347-2.515-2.423 1.4a.5.5 0 0 1 -.629-.759l.922-1.069a.5.5 0 0 1 -.142-.921l1.934-1.116a.5.5 0 0 1 .629.759l-.66.765 2.778-1.6a.5.5 0 0 1 .616.774l-2.351 2.515 4.882-2.819a.5.5 0 0 1 .6.79l-1.751 1.711 2.277-1.313a.5.5 0 0 1 .613.776l-.762.806.484-.278a.5.5 0 0 1 .736.547l-.265 1.117a.49.49 0 0 1 .24.211.5.5 0 0 1 -.183.682l-.5.288a.5.5 0 0 1 -.736-.548l.2-.852-2.441 1.409a.5.5 0 0 1 -.613-.776l.762-.807-2.756 1.591a.5.5 0 0 1 -.6-.79l1.75-1.71-4.347 2.51a.489.489 0 0 1 -.246.064z" fill="#3778c6"/><path d="m42.066 55.471a.5.5 0 0 1 -.272-.919l.947-.616-2.541 1.464a.5.5 0 0 1 -.536-.842l9.084-6.335-12.434 7.177a.5.5 0 0 1 -.518-.854l2.384-1.52-4.113 2.374a.5.5 0 0 1 -.523-.851l6.039-3.941-8.3 4.792a.5.5 0 0 1 -.532-.845l9.529-6.513-12.747 7.358a.5.5 0 0 1 -.533-.842l9.585-6.558-12.822 7.4a.5.5 0 0 1 -.524-.851l5.972-3.9-8.222 4.751a.5.5 0 0 1 -.518-.854l2.793-1.781-4.564 2.635a.5.5 0 0 1 -.534-.843l9.994-6.9-13.416 7.743a.5.5 0 0 1 -.53-.846l9.1-6.165-12.151 7.011a.5.5 0 0 1 -.526-.849l7.653-5.08-10.27 5.929a.5.5 0 0 1 -.534-.844l9.817-6.75-13.155 7.594a.5.5 0 0 1 -.528-.848l8.274-5.536-9.989 5.769a.5.5 0 0 1 -.519-.853l2.646-1.7-2.66 1.536a.5.5 0 0 1 -.533-.845l7.515-5.173-7.074 4.084a.5.5 0 0 1 -.525-.85l1.731-1.142-1.207.7a.5.5 0 0 1 -.537-.842l3.641-2.552-3.1 1.791a.5.5 0 0 1 -.558-.827l4-3.147-3.446 1.984a.5.5 0 0 1 -.6-.791l2.761-2.679-2.161 1.248a.5.5 0 0 1 -.68-.688l.952-1.61a.5.5 0 0 1 -.478-.878l1.627-.94a.5.5 0 0 1 .681.688l-.952 1.61 4.005-2.309a.5.5 0 0 1 .6.791l-2.763 2.677 6.012-3.47a.5.5 0 0 1 .559.826l-4 3.147 6.88-3.971a.5.5 0 0 1 .537.841l-3.638 2.549 5.879-3.39a.5.5 0 0 1 .525.849l-1.725 1.138 3.448-1.99a.5.5 0 0 1 .533.844l-7.511 5.173 10.419-6.014a.5.5 0 0 1 .52.853l-2.657 1.7 4.429-2.553a.5.5 0 0 1 .529.848l-8.276 5.537 11.066-6.385a.5.5 0 0 1 .533.844l-9.816 6.75 13.15-7.594a.5.5 0 0 1 .526.849l-7.653 5.08 10.271-5.929a.5.5 0 0 1 .53.846l-9.1 6.165 12.151-7.011a.5.5 0 0 1 .534.843l-9.994 6.9 13.413-7.743a.5.5 0 0 1 .518.854l-2.793 1.778 4.567-2.632a.5.5 0 0 1 .523.851l-5.972 3.9 8.222-4.751a.5.5 0 0 1 .532.845l-9.584 6.555 12.823-7.4a.5.5 0 0 1 .532.845l-9.529 6.513 12.745-7.358a.5.5 0 0 1 .523.851l-6.036 3.94 7.992-4.615a.5.5 0 0 1 .519.855l-2.384 1.519 2.844-1.641a.5.5 0 0 1 .536.843l-9.081 6.332 8.878-5.125a.5.5 0 0 1 .522.851l-.958.623.437-.252a.5.5 0 0 1 .541.839l-5.3 3.8 4.762-2.749a.5.5 0 0 1 .562.823l-4.695 3.76 4.133-2.386a.5.5 0 0 1 .58.809l-2.668 2.345 2.088-1.205a.5.5 0 0 1 .625.1.5.5 0 0 1 .023.634l-1.335 1.749.576-.332a.5.5 0 1 1 .5.865l-2.722 1.567a.5.5 0 0 1 -.649-.735l1.331-1.753-4.311 2.488a.5.5 0 0 1 -.58-.808l2.667-2.344-5.461 3.152a.5.5 0 0 1 -.563-.823l4.7-3.759-7.944 4.582a.5.5 0 0 1 -.541-.839l5.3-3.794-8.024 4.633a.5.5 0 0 1 -.25.071z" fill="#b0ccdd"/><path d="m30.017 15.469a.5.5 0 0 1 -.325-.881l2.608-2.219-4.435 2.561a.5.5 0 0 1 -.559-.826l3.825-3.02-5.012 2.895a.5.5 0 0 1 -.548-.835l3.672-2.727-4.285 2.475a.5.5 0 0 1 -.556-.829l5.067-3.917-5.5 3.177a.5.5 0 0 1 -.551-.833l4.249-3.2-4.214 2.433a.5.5 0 0 1 -.552-.832l3.477-2.63-3.042 1.757a.5.5 0 0 1 -.544-.838l1.05-.764-.317.182a.5.5 0 0 1 -.6-.788l2.248-2.228a.5.5 0 0 1 -.371-.918l3.163-1.827a.5.5 0 0 1 .6.788l-2.192 2.175 5.138-2.967a.5.5 0 0 1 .544.837l-1.05.765 1.844-1.064a.5.5 0 0 1 .551.829l-3.475 2.632 4.346-2.509a.5.5 0 0 1 .55.832l-4.249 3.2 4.828-2.787a.5.5 0 0 1 .556.829l-5.07 3.917 5.374-3.1a.5.5 0 0 1 .548.834l-3.67 2.725 3.474-2.006a.5.5 0 0 1 .56.826l-3.824 3.018 3.213-1.855a.5.5 0 0 1 .574.814l-2.609 2.219 1.251-.722a.5.5 0 0 1 .5.866l-6.01 3.467a.5.5 0 0 1 -.25.069z" fill="#fde05e"/><path d="m6.384 49.305a.5.5 0 0 1 -.41-.786l.817-1.17-1.327.765a.5.5 0 0 1 -.667-.708l.614-.93a.5.5 0 0 1 -.338-.925l1.637-.946a.5.5 0 0 1 .667.708l-.578.876 1.44-.831a.5.5 0 0 1 .66.719l-.817 1.17.539-.31a.5.5 0 1 1 .5.865l-2.487 1.435a.49.49 0 0 1 -.25.068z" fill="#e1efff"/><path d="m19.048 49.46a.5.5 0 0 1 -.4-.8l.29-.379-.977.565a.5.5 0 0 1 -.624-.765l.485-.546-.449.259a.5.5 0 0 1 -.643-.743l.46-.581a.49.49 0 0 1 -.3-.233.5.5 0 0 1 .182-.682l1.637-.946a.5.5 0 0 1 .628.106.5.5 0 0 1 .015.638l-.213.268.859-.5a.5.5 0 0 1 .624.765l-.484.545.472-.273a.5.5 0 0 1 .648.737l-.488.637a.5.5 0 0 1 .151.923l-1.624.938a.5.5 0 0 1 -.249.067z" fill="#e1efff"/><g fill="#262626"><path d="m59.734 44.508a5.307 5.307 0 0 0 -.376-2.878c-.83-1.288-2.278-1.164-3.6-1.164h-.038a3.721 3.721 0 0 0 -.922-2.85 3.947 3.947 0 0 0 -2.982-.959h-3.034a5 5 0 0 0 -3.231.945 3.314 3.314 0 0 0 -1.232 2.036 5.3 5.3 0 0 0 -.052.828h-6.567c-.154-1.866-.294-3.733-.466-5.6a6.939 6.939 0 0 0 -3.5-5.4v-15.06a7.574 7.574 0 0 0 4-6.491 7.363 7.363 0 0 0 -4.959-6.925 8.192 8.192 0 0 0 -8.681 2.326 7.34 7.34 0 0 0 -.778 8.559 7.126 7.126 0 0 0 2.957 2.7v15.044a7.13 7.13 0 0 0 -3.5 5.456c-.17 1.795-.3 3.593-.451 5.391h-6.593a3.887 3.887 0 0 0 -.853-2.8 4.007 4.007 0 0 0 -3.157-1.166h-3.019a4.643 4.643 0 0 0 -3.053.861 3.629 3.629 0 0 0 -1.317 2.099 4.678 4.678 0 0 0 -.069.985c-.349.008-.7.009-1.047.021a3.05 3.05 0 0 0 -2.478 1.2 4.836 4.836 0 0 0 -.47 2.949c0 2.744-.065 5.5 0 8.24a2.458 2.458 0 0 0 2.005 2.535c-.023 1.207-.223 2.67.864 3.467a2.831 2.831 0 0 0 1.759.43h3.634c1.44-.039 3.134-.787 3.2-2.426.016-.441.013-.884.008-1.327h36.53c-.04 1.18-.154 2.552.84 3.335a3 3 0 0 0 1.957.551h3.658a1.706 1.706 0 0 0 .3-.03 2.768 2.768 0 0 0 2.708-2.48c.012-.508 0-1.017 0-1.525 2.544-.747 2.009-3.956 2.009-6.2zm-13.364-6.465a1.75 1.75 0 0 1 1.333-.7h.66 2.674a3.11 3.11 0 0 1 2.314.71 3.151 3.151 0 0 1 .915 2.413h-8.542a3.494 3.494 0 0 1 .646-2.423zm-21.194-25.995a6.8 6.8 0 0 1 -.6-7.448 5.992 5.992 0 0 1 6.514-3.023 6.779 6.779 0 0 1 5.187 6.508 6.659 6.659 0 0 1 -3.3 5.774 1.044 1.044 0 0 0 -.565.268c-.065.027-.122.064-.187.089a6.337 6.337 0 0 1 -7.049-2.168zm2.551 4.1v-1.013a8.033 8.033 0 0 0 3.619.141 8.157 8.157 0 0 0 .925-.243v13.8a7.255 7.255 0 0 0 -2.009-.315 7.781 7.781 0 0 0 -2.535.43zm-3.527 19.112a6.592 6.592 0 0 1 1.237-3.552 5.52 5.52 0 0 1 4.3-2.225 6.224 6.224 0 0 1 6.063 5.973l.418 5.01h-12.449q.218-2.604.431-5.206zm-17.9 3a2.464 2.464 0 0 1 2.138-.76h2.662a2.968 2.968 0 0 1 2.166.529 2.934 2.934 0 0 1 .99 2.441h-.81c-2.567 0-5.147-.066-7.72-.049a3.17 3.17 0 0 1 .579-2.165zm3.971 18.682a2.432 2.432 0 0 1 -.127.923 1.822 1.822 0 0 1 -.389.614c-.078.08-.238.154-.3.238h-3.249a3.026 3.026 0 0 1 -1.442-.18 2.016 2.016 0 0 1 -1.04-1.906v-1.097h6.552zm45 1.642h-3.226a3.48 3.48 0 0 1 -1.248-.093 1.827 1.827 0 0 1 -1.072-1.779v-1.178h6.55v1.351c0 .602-.205 1.674-.996 1.695zm1.784-4.114h-24.744c-9.581 0-19.188.211-28.766 0-1.943-.043-1.811-1.884-1.811-3.374 0-2.647-.068-5.3 0-7.949.044-1.692 1.216-1.609 2.423-1.609h51.717c1.3 0 2.37.222 2.392 1.9.035 2.686 0 5.374 0 8.061 0 1.035.284 2.847-1.203 2.967z"/><path d="m8.162 44.8a3.277 3.277 0 0 0 -1.812.067 3.173 3.173 0 0 0 -1.525.888 2.114 2.114 0 0 0 -.212 2.549 2.538 2.538 0 0 0 2.784.886 2.636 2.636 0 0 0 2.327-2.387 2.136 2.136 0 0 0 -1.562-2.003zm-1.57.467.01-.005c.031-.013.056-.018-.021.011zm-.092.033c-.052.016-.036.009 0 0zm1.444 2.943a1.714 1.714 0 0 1 -.323.352 1.458 1.458 0 0 1 -.154.107l-.009.005h-.071a1.574 1.574 0 0 1 -.446-.093 1.884 1.884 0 0 1 -.849-.651 1.945 1.945 0 0 1 -.122-2.07 1.686 1.686 0 0 1 .289-.382c.032-.03.064-.058.1-.087.011-.01.1-.078.042-.038a1.011 1.011 0 0 1 .087-.058l.057-.035h.01.029c-.025 0 .157.011.1.005a1.944 1.944 0 0 1 .256.054 1.909 1.909 0 0 1 1 2.89z"/><path d="m20.162 44.805a3.274 3.274 0 0 0 -1.811.068 3.181 3.181 0 0 0 -1.526.886 2.111 2.111 0 0 0 -.212 2.548 2.535 2.535 0 0 0 2.784.883 2.635 2.635 0 0 0 2.327-2.384 2.13 2.13 0 0 0 -1.562-2.001zm-1.6.473h-.006zm.033-.015h.008c.03-.012.05-.017-.022.01zm-.095.037c-.051.016-.035.008 0 0zm1.445 2.946a1.717 1.717 0 0 1 -.323.353 1.844 1.844 0 0 1 -.154.107l-.01.006h-.073a1.548 1.548 0 0 1 -.447-.095 1.884 1.884 0 0 1 -.849-.651 1.947 1.947 0 0 1 -.122-2.071 1.657 1.657 0 0 1 .289-.382c.031-.03.064-.058.1-.088.011-.01.1-.078.042-.038.028-.021.058-.04.087-.058l.059-.035h.01.03c-.025 0 .157.011.1.005a2.162 2.162 0 0 1 .256.054 1.912 1.912 0 0 1 1 2.893z"/><path d="m29.2 5.529c.1-.023.109-.029.083-.024l-.076.021z"/><path d="m30.292 5.321a.839.839 0 0 0 .386-.294c.157-.29-.134-.46-.4-.459a4.284 4.284 0 0 0 -2.942 1.132 3.377 3.377 0 0 0 -1.062 2.382.267.267 0 0 0 .153.279.851.851 0 0 0 .48.061 1.28 1.28 0 0 0 .548-.188c.1-.068.27-.186.271-.32a2.75 2.75 0 0 1 .674-1.814c.581-.636 1.2-.476 1.892-.779z"/><path d="m14.277 50.569h-2a1.422 1.422 0 0 0 -.569.111.854.854 0 0 0 -.386.293.255.255 0 0 0 .007.317.567.567 0 0 0 .394.141h2a1.422 1.422 0 0 0 .569-.111.854.854 0 0 0 .386-.293.255.255 0 0 0 -.007-.317.567.567 0 0 0 -.394-.141z"/><path d="m26.3 50.67h-2a1.689 1.689 0 0 0 -.566.123 1 1 0 0 0 -.4.239c-.052.066-.106.159-.017.227a.623.623 0 0 0 .375.071h2a1.689 1.689 0 0 0 .566-.123 1 1 0 0 0 .4-.239c.052-.066.106-.159.017-.227a.623.623 0 0 0 -.375-.071z"/></g></svg>