<svg id="Icons" viewBox="0 0 60 60" xmlns="http://www.w3.org/2000/svg"><path d="m17.787 59.449c-.168 0-.333-.086-.427-.24-.142-.231-.072-.533.156-.681l2.543-1.634-4.22 2.436c-.235.137-.534.061-.676-.171-.142-.23-.074-.532.152-.681l6.446-4.211-8.123 4.689c-.233.136-.53.061-.674-.167-.143-.229-.079-.529.144-.68l10.248-6.931-12.102 6.986c-.235.138-.535.06-.678-.173-.141-.232-.07-.535.159-.682l6.863-4.381-7.812 4.51c-.236.137-.534.061-.676-.171s-.074-.533.153-.681l12.183-7.937-13.333 7.697c-.235.138-.538.061-.679-.175-.141-.233-.068-.536.163-.682l6.216-3.903-6.748 3.896c-.235.138-.535.06-.677-.173-.142-.231-.071-.534.157-.681l10.676-6.839-11.312 6.53c-.235.139-.537.06-.678-.174s-.069-.536.16-.682l7.233-4.571-7.573 4.372c-.235.139-.536.06-.677-.173-.142-.232-.071-.534.157-.681l13.174-8.433-13.6 7.851c-.237.137-.539.058-.679-.176-.141-.233-.067-.537.164-.682l7.324-4.563-7.447 4.3c-.238.138-.54.059-.68-.177s-.065-.539.168-.682l1.374-.844-1.371.791c-.236.137-.536.061-.677-.172-.142-.231-.072-.534.155-.681l14.957-9.649-15.231 8.794c-.235.138-.537.06-.679-.175-.141-.233-.067-.537.163-.682l16.886-10.584-16.888 9.76c-.238.137-.54.058-.679-.176-.141-.234-.066-.538.165-.682l14.601-9.04-14.363 8.292c-.238.138-.54.059-.68-.177-.14-.234-.065-.538.167-.682l13.042-8.045-12.609 7.279c-.235.138-.536.06-.678-.174-.141-.233-.069-.536.161-.682l19.271-12.143-18.536 10.704c-.238.138-.54.059-.68-.177s-.064-.539.168-.682l7.637-4.686-6.702 3.869c-.235.137-.534.06-.676-.171s-.074-.532.152-.68l1.604-1.05-.413.238c-.232.136-.529.062-.673-.166s-.081-.527.141-.68l4.957-3.393-3.175 1.833c-.229.136-.527.062-.671-.163-.145-.225-.086-.523.132-.678l6.259-4.426-4.245 2.45c-.229.134-.525.062-.67-.161s-.088-.521.128-.678l6.182-4.442-4.118 2.377c-.233.137-.528.062-.673-.165-.144-.227-.082-.526.139-.679l2.975-2.057-1.321.763c-.233.137-.53.062-.673-.166-.144-.227-.082-.526.14-.679l1.452-1c-.216.087-.472.013-.604-.189-.146-.221-.093-.517.119-.676l3.238-2.413-1.417.817c-.227.135-.522.063-.668-.157-.146-.222-.094-.518.119-.676l1.37-1.023c-.169.024-.343-.043-.455-.183-.154-.192-.146-.468.021-.65l2.123-2.328c-.168-.005-.33-.094-.42-.25-.139-.239-.057-.545.183-.683l2.367-1.367c.21-.125.484-.074.64.119.154.192.146.468-.021.65l-1.961 2.15 4.098-2.365c.229-.134.523-.062.668.157.146.222.094.518-.119.676l-1.112.831 1.479-.854c.229-.133.522-.062.668.158s.093.517-.119.676l-3.234 2.41 3.396-1.96c.231-.135.53-.062.673.166.144.227.082.526-.14.679l-1.406.968 1.077-.621c.235-.135.528-.061.673.165.144.227.082.526-.139.679l-2.974 2.056 2.146-1.238c.228-.136.524-.063.67.161.145.224.088.521-.128.678l-6.181 4.442 4.968-2.868c.23-.135.528-.062.671.163.145.225.086.523-.132.678l-6.258 4.426 5.069-2.927c.23-.135.53-.062.673.166.144.228.081.527-.141.68l-4.961 3.395 4.656-2.688c.236-.136.535-.061.676.171.142.23.074.532-.152.68l-1.606 1.052 23.592-13.62c.237-.138.539-.06.68.177.14.235.064.539-.168.682l-7.597 4.66 8.476-4.893c.237-.137.537-.06.678.174s.069.536-.161.682l-19.282 12.149 19.913-11.496c.236-.139.538-.06.68.177.14.234.065.538-.167.682l-13.053 8.052 12.767-7.37c.236-.139.539-.06.679.176.141.234.066.538-.165.682l-14.578 9.026 12.649-7.303c.237-.137.538-.058.679.175s.067.537-.163.682l-16.89 10.586 8.911-5.145c.236-.137.536-.061.677.172.142.231.072.534-.155.681l-14.965 9.654 15.808-9.126c.237-.139.539-.06.68.177.14.235.065.539-.168.682l-1.321.812 1.173-.677c.237-.139.537-.06.679.176.141.233.067.537-.164.682l-7.364 4.588 6.779-3.913c.236-.136.536-.059.677.173.142.232.071.534-.157.681l-13.162 8.425 10.289-5.939c.236-.137.537-.059.678.174s.069.536-.16.682l-7.238 4.574 8.448-4.877c.236-.136.536-.059.677.173.142.231.071.534-.157.681l-10.671 6.837 11.283-6.515c.237-.137.538-.06.679.175.141.233.068.536-.163.682l-6.224 3.908 6.138-3.543c.235-.136.534-.06.676.171s.074.533-.153.681l-12.179 7.934 11.17-6.448c.237-.137.536-.059.678.173.141.232.07.535-.159.682l-6.867 4.384 4.834-2.791c.234-.135.531-.061.674.167.143.229.079.529-.144.68l-10.246 6.93 11.654-6.729c.235-.136.535-.06.676.171.142.23.074.532-.152.681l-6.452 4.215 6.679-3.855c.235-.136.535-.059.677.173s.072.533-.156.681l-2.548 1.637 2.221-1.281c.234-.137.531-.061.675.168.143.229.077.53-.146.68l-3.992 2.673 2.906-1.678c.238-.14.545-.057.683.183.139.239.057.545-.183.683l-15.967 9.218c-.235.135-.532.061-.675-.168s-.077-.53.146-.68l3.992-2.672-7.326 4.229c-.079.046-.165.067-.25.067z" fill="#eaaa39"/><g fill="#262626"><path d="m42.173 22.882c3.682-1.851 2.201-7.543-1.985-7.128-7.643 2.686-14.38 7.979-21.668 11.621.661-2.248 1.451-4.521 1.861-6.812.883-5.21-6.704-6.543-8.859-2.308-2.862 5.011-5.372 10.257-8.049 15.369-8.344 10.813 1.622 27.528 15.067 25.586 6.698-1.105 12.082-5.638 18.015-8.642 3.756-1.726 2.64-7.547-1.612-7.221 4.337-1.5 3.996-8.007-.959-7.625 4.435-1.474 4.17-8.091-.899-7.688 3.026-1.723 6.074-3.415 9.088-5.153zm-6.734 7.539c1.229 2.454-.869 4.607-3.083 5.481-8.487 3.399-6.828 5.851.419.528 2.875-.89 5.012 3.042 3.159 5.231-1.16 1.932-5.168 2.242-5.796 4.008 1.246.141 2.331-1.013 3.409-1.532 2.816-1.208 4.757 2.798 3.399 4.988-5.374 3.845-11.556 7.853-18.067 9.471-9.109 1.137-17.258-7.503-17.15-16.337 1.597-8.973 7.794-16.534 11.539-24.745 2.373-3.02 6.628.48 5.591 3.652.172 1.397-3.541 8.563-.866 7.236 5.893-2.31 18.128-12.509 23.301-11.536 5.764 5.733-6.384 8.559-9.804 11.338-12.022 5.383-10.192 7.845.435.541 1.37-.492 2.888.438 3.511 1.676z"/><path d="m54.477 5.528c-.741-.176-6.737 5.602-5.454 5.444.741.176 6.738-5.602 5.454-5.444z"/><path d="m34.164 10.963c.365.399 1.64.005 1.339-.593-1.946-1.348-3.466-4.763-5.801-4.882-1.302.973 3.747 4.212 4.462 5.475z"/><path d="m52.903 29.722c.396.842 2.196 1.245 1.926-.046-1.958-1.379-3.482-4.727-5.821-4.955-1.212 1.253 3.151 3.672 3.895 5.001z"/><path d="m42.729 7.926c-.37-1.286 1.136-9.5-1.457-6.852.37 1.286-1.137 9.5 1.457 6.852z"/><path d="m58.718 18.41c4.171-1.084-6.991-1.203-7.392-.424 1.542 1.151 5.18.061 7.392.424z"/></g></svg>