<svg id="Icons" height="512" viewBox="0 0 60 60" width="512" xmlns="http://www.w3.org/2000/svg"><g fill="#cd4c60"><path d="m40.046 26.714a.5.5 0 0 1 -.322-.883l3.407-2.868-1.528.882a.5.5 0 0 1 -.581-.808l1.778-1.567-.694.4a.5.5 0 0 1 -.576-.811l.555-.478a.524.524 0 0 1 -.416-.2.5.5 0 0 1 .053-.661l.517-.5a.513.513 0 0 1 -.443-.18.5.5 0 0 1 .009-.647l.479-.548a.5.5 0 0 1 -.528-.689l.47-1.124a.544.544 0 0 1 -.454-.25.5.5 0 0 1 .183-.682l1.02-.589a.5.5 0 0 1 .71.626l-.434 1.038 1.061-.613a.5.5 0 0 1 .627.762l-.4.462.648-.373a.5.5 0 0 1 .6.793l-.393.378.572-.33a.5.5 0 0 1 .576.811l-.319.276.436-.252a.5.5 0 0 1 .58.807l-1.778 1.566 2.077-1.2a.5.5 0 0 1 .572.815l-3.41 2.873 3.8-2.193a.5.5 0 1 1 .5.865l-8.7 5.024a.493.493 0 0 1 -.254.068z"/><path d="m30.271 59.466a.5.5 0 0 1 -.271-.917l7.877-5.2-10.342 5.97a.5.5 0 0 1 -.522-.851l9.448-6.142-11.69 6.751a.5.5 0 0 1 -.523-.851l12.307-7.991-14.547 8.4a.5.5 0 0 1 -.514-.858l4.985-3.1-6.179 3.57a.5.5 0 0 1 -.516-.856l9.326-5.841-10.662 6.15a.5.5 0 0 1 -.519-.853l16.323-10.447-18.086 10.441a.5.5 0 0 1 -.512-.86l4.483-2.747-5.237 3.021a.5.5 0 0 1 -.511-.859l6.483-3.981-7.206 4.16a.5.5 0 0 1 -.515-.856l14.864-9.3-15.872 9.17a.5.5 0 0 1 -.515-.857l15.193-9.477-16.035 9.258a.5.5 0 0 1 -.516-.856l18.484-11.623-19.33 11.16a.5.5 0 0 1 -.511-.859l7.098-4.335-7.386 4.266a.5.5 0 0 1 -.518-.856l20.834-13.166-21.456 12.388a.5.5 0 0 1 -.513-.858l16.461-10.235-16.722 9.653a.5.5 0 0 1 -.515-.857l3.752-2.335-3.684 2.125a.5.5 0 0 1 -.517-.855l9.242-5.838-9.178 5.3a.5.5 0 0 1 -.512-.858l.665-.409-.4.228a.5.5 0 0 1 -.515-.856l8.234-5.152-7.919 4.572a.5.5 0 0 1 -.55-.833l2.395-1.8-1.928 1.116a.5.5 0 0 1 -.568-.818l3.7-3.057-3.059 1.764a.5.5 0 0 1 -.568-.819l2.947-2.419-2.183 1.259a.5.5 0 0 1 -.584-.8l3.443-3.091-2.4 1.383a.5.5 0 0 1 -.569-.819l1.779-1.468-.685.394a.5.5 0 0 1 -.6-.794l2.866-2.73-1.117.644a.5.5 0 0 1 -.572-.815l1.183-.991a.5.5 0 0 1 -.217-.824l1.992-2.094c-.013-.019-.026-.038-.038-.058a.5.5 0 0 1 .183-.683l1.305-.754a.5.5 0 0 1 .642.123.5.5 0 0 1 -.03.655l-.943.992.871-.5a.5.5 0 0 1 .571.815l-.578.486a.5.5 0 0 1 .457.848l-2.858 2.724 2.249-1.293a.5.5 0 0 1 .569.818l-1.78 1.471 1.371-.791a.5.5 0 0 1 .584.8l-3.444 3.091 3.307-1.909a.5.5 0 0 1 .567.82l-2.946 2.419 2.943-1.7a.5.5 0 0 1 .569.818l-3.699 3.063 3.973-2.3a.5.5 0 0 1 .667.157.5.5 0 0 1 -.117.676l-2.392 1.793 25.143-14.513a.5.5 0 0 1 .515.856l-8.243 5.158 7.269-4.2a.5.5 0 0 1 .512.859l-.924.568a.5.5 0 0 1 .435.894l-9.235 5.833 7.713-4.453a.5.5 0 0 1 .514.858l-3.758 2.342 17.387-10.036a.5.5 0 0 1 .514.857l-16.453 10.23 16.637-9.6a.5.5 0 0 1 .517.855l-20.85 13.172 21.066-12.161a.5.5 0 0 1 .511.859l-7.064 4.313 6.937-4.005a.5.5 0 0 1 .516.856l-18.486 11.624 18.47-10.663a.5.5 0 0 1 .514.856l-15.2 9.478 15.037-8.68a.5.5 0 0 1 .515.856l-14.863 9.3 14.632-8.448a.5.5 0 0 1 .512.858l-6.474 3.976 6.119-3.532a.5.5 0 0 1 .511.859l-4.492 2.748 4.092-2.362a.5.5 0 0 1 .52.853l-16.326 10.457 15.9-9.177a.5.5 0 0 1 .516.857l-9.328 5.839 8.8-5.083a.5.5 0 0 1 .514.857l-4.984 3.1 4.4-2.539a.5.5 0 0 1 .522.851l-12.3 7.987 11.514-6.648a.5.5 0 0 1 .523.852l-9.454 6.145 8.488-4.9a.5.5 0 0 1 .525.85l-7.869 5.191 6.642-3.835a.5.5 0 0 1 .528.848l-5.549 3.715 4-2.309a.5.5 0 0 1 .557.827l-5.557 4.315 2.1-1.211a.5.5 0 0 1 .5.866l-8.422 4.862a.5.5 0 0 1 -.557-.827l5.556-4.315-10.72 6.187a.5.5 0 0 1 -.528-.848l5.551-3.717-8.159 4.712a.5.5 0 0 1 -.25.066z"/><path d="m14.9 36.93a.5.5 0 0 1 -.279-.915l10.609-7.115-10.253 5.92a.5.5 0 0 1 -.52-.853l4.989-3.2-4.331 2.5a.5.5 0 0 1 -.521-.853l6.478-4.19-5.495 3.176a.5.5 0 0 1 -.527-.848l9.593-6.4-7.819 4.508a.5.5 0 0 1 -.533-.845l10.339-7.115-5.958 3.44a.5.5 0 0 1 -.541-.839l7.929-5.681-5 2.884a.5.5 0 0 1 -.544-.836l5.609-4.108-4.288 2.475a.5.5 0 0 1 -.537-.835l3.725-2.705-2.878 1.662a.5.5 0 0 1 -.536-.843l.7-.489-.072.041a.5.5 0 0 1 -.565-.821l4.255-3.453-3.668 2.117a.5.5 0 0 1 -.547-.835l1.037-.764-.58.334a.5.5 0 0 1 -.57-.816l2.552-2.131-2.237 1.288a.5.5 0 0 1 -.576-.811l1.885-1.625-1.681.969a.5.5 0 0 1 -.589-.8l1.491-1.373-1.388.8a.5.5 0 0 1 -.627-.761l1.442-1.654-1.538.888a.5.5 0 0 1 -.671-.7l.912-1.424-1.163.671a.5.5 0 0 1 -.65-.732l.108-.146-.106.061a.5.5 0 0 1 -.724-.591l.142-.422a.5.5 0 0 1 -.389-.914l1.026-.593a.5.5 0 0 1 .724.593l-.134.4 1.066-.615a.5.5 0 0 1 .65.731l-.108.146.837-.484a.5.5 0 0 1 .671.7l-.912 1.424 2.361-1.362a.5.5 0 0 1 .627.762l-1.443 1.655 2.7-1.557a.5.5 0 0 1 .589.8l-1.496 1.379 2.366-1.365a.5.5 0 0 1 .577.812l-1.885 1.621 2.67-1.541a.5.5 0 0 1 .57.816l-2.55 2.131 3.31-1.912a.5.5 0 0 1 .547.835l-1.036.762 1.37-.79a.5.5 0 0 1 .565.822l-4.256 3.454 4.972-2.87a.5.5 0 0 1 .535.843l-.7.485.809-.467a.5.5 0 0 1 .544.837l-3.729 2.708 3.969-2.293a.5.5 0 0 1 .545.836l-5.61 4.108 5.846-3.374a.5.5 0 0 1 .541.839l-7.922 5.679 8.046-4.646a.5.5 0 0 1 .533.845l-10.336 7.115 10.252-5.919a.5.5 0 0 1 .527.849l-9.6 6.4 9.265-5.349a.5.5 0 0 1 .522.852l-6.475 4.189 5.973-3.449a.5.5 0 0 1 .519.854l-4.993 3.2 4.409-2.545a.5.5 0 0 1 .528.848l-10.612 7.121 9.813-5.665a.5.5 0 1 1 .5.865l-22.726 13.121a.5.5 0 0 1 -.245.068z"/></g><path d="m40.7 43.421a.5.5 0 0 1 -.384-.82l2.335-2.8a.521.521 0 0 1 -.082-.108.5.5 0 0 1 .183-.682l1.154-.666a.5.5 0 0 1 .634.753l-1.654 1.982 2-1.152a.5.5 0 1 1 .5.865l-4.433 2.56a.5.5 0 0 1 -.253.068z" fill="#f7bc5c"/><path d="m29.19 59.386a.5.5 0 0 1 -.288-.909l7.67-5.4-10.339 5.97a.5.5 0 0 1 -.53-.847l8.345-5.649-10.333 5.966a.5.5 0 0 1 -.523-.852l6.543-4.257-7.814 4.511a.5.5 0 0 1 -.529-.848l11.708-7.884-13.329 7.7a.5.5 0 0 1 -.543-.838l6.789-4.9-7.94 4.581a.5.5 0 0 1 -.523-.851l1.279-.835-1.624.937a.5.5 0 0 1 -.534-.843l7.075-4.881-7.73 4.463a.5.5 0 0 1 -.536-.844l8.251-5.727-8.8 5.082a.5.5 0 0 1 -.52-.853l.22-.141-.214.123a.5.5 0 0 1 -.567-.819l1.31-1.074-1.307.755a.5.5 0 0 1 -.622-.768l1.672-1.854-1.686.973a.5.5 0 0 1 -.681-.686l1.069-1.818-.918.531a.5.5 0 0 1 -.717-.61l.429-1.136a.5.5 0 0 1 -.411-.907l1.118-.647a.5.5 0 0 1 .718.609l-.428 1.125 1.35-.779a.5.5 0 0 1 .681.686l-1.07 1.817 2.79-1.611a.5.5 0 0 1 .621.768l-1.672 1.855 3.862-2.229a.5.5 0 0 1 .567.819l-1.309 1.074 14.094-8.134a.5.5 0 0 1 .52.853l-.213.136.019-.01a.5.5 0 0 1 .535.844l-8.252 5.728 8.113-4.684a.5.5 0 0 1 .534.844l-7.076 4.881 6.666-3.848a.5.5 0 0 1 .524.852l-1.282.836.644-.372a.5.5 0 0 1 .543.838l-6.784 4.9 17.344-10.022a.5.5 0 0 1 .53.848l-11.714 7.887 11.535-6.661a.5.5 0 0 1 .522.852l-6.539 4.255 6.171-3.563a.5.5 0 0 1 .531.847l-8.344 5.649 7.875-4.545a.5.5 0 0 1 .538.841l-7.67 5.4 6.9-3.987a.5.5 0 0 1 .534.844l-3.649 2.524 2.581-1.49a.5.5 0 0 1 .57.817l-3.7 3.082 1.088-.628a.5.5 0 1 1 .5.865l-6.134 3.542a.5.5 0 0 1 -.57-.816l3.7-3.084-8.165 4.714a.5.5 0 0 1 -.534-.844l3.653-2.525-5.918 3.418a.493.493 0 0 1 -.25.068z" fill="#f7bc5c"/><path d="m20.894 45.5a.5.5 0 0 1 -.3-.9l4.459-3.358-3.821 2.2a.5.5 0 0 1 -.549-.832l3.34-2.508-2.11 1.218a.5.5 0 0 1 -.562-.823l3.02-2.414-.209.12a.5.5 0 0 1 -.595-.8l1.723-1.642-.459.264a.5.5 0 0 1 -.663-.715l1.239-1.81-.51.294a.5.5 0 0 1 -.7-.641l.412-.9a.512.512 0 0 1 -.478-.248.5.5 0 0 1 .183-.683l1.121-.647a.5.5 0 0 1 .7.64l-.379.828 1.05-.606a.5.5 0 0 1 .663.715l-1.24 1.815 2.182-1.258a.5.5 0 0 1 .595.794l-1.722 1.642 2.321-1.34a.5.5 0 0 1 .563.823l-3.021 2.415 3.565-2.058a.5.5 0 0 1 .55.832l-3.346 2.513 3.735-2.157a.5.5 0 0 1 .551.832l-4.455 3.355 4.808-2.775a.5.5 0 0 1 .5.865l-11.911 6.878a.494.494 0 0 1 -.25.072z" fill="#f7bc5c"/><path d="m12.805 25.337c-.973-3.616-4.039 1.171-4.805 2.444-13.315 23.251 11.877 36.78 32.05 30.363 18.282-5.782 16.6-33.076 3.675-43.612-3.965-1.712.286 10.887-7.332 14.426 5.752-13.064-1.447-25.988-15.547-28.512-2.91.71.067 3.5.736 4.685 7.64 13.686-6.446 18.3-7.317 29.521a17.55 17.55 0 0 1 -1.46-9.315zm11.823 11.809c.278-.722.53-5.385 1.2-5.351 4.263 2.937 10.389 9.093 7.81 14.881-.136 2.55 5.674-1.573 6.54-2.551.455-.443 3.651-4.848 4.316-4.292 4.015 10.9-3.227 19.342-14.528 18.567-7.009.221-14.029-3.2-16.4-10.007-.59-1.6-1.6-3.464.789-3.424 1.407.232 6.5 3.031 7.111.824-.733-3.487 2.034-5.712 3.162-8.647zm-9.835.41c.667.36.631-.691.564-.987-1.108-14.829 16.643-12.024 5.743-34.926a18.594 18.594 0 0 1 13.923 27.957c-.32 2.715 4.022-1.072 4.579-1.945 2.932-2.669 2.288-8.9 3.849-11.949 11.211 9.179 13.549 32.618-.562 39.676 4.056-4 4.276-10.8 2.246-16.52-2.492-2.932-4.472 6.527-10.4 7.353 2.8-4.311-7.09-18.279-10.427-15.036-.907 2.088-.694 5.063-1.589 7.394-1.192 2.136-2.8 4.277-2.292 6.889-.429.476-2.432-.192-3.692-.724-10.358-6.017-2.481 10.483 2.165 11.984a16.651 16.651 0 0 1 -13.067-20.2c.625-3.537 2.6-9.731 6.082-10.9-.415 3.838-.232 9.12 2.878 11.934z" fill="#262626"/><path d="m20.413 43.613v-.021s.001.002 0 .021z" fill="#262626"/></svg>